<?xml version="1.0" ?><svg viewBox="0 0 40 40" xmlns="http://www.w3.org/2000/svg"><title/><g id="Bitcoin"><path d="M22.68,18.27c-.37,1.49-2.66.73-3.4.55l.65-2.63C20.68,16.37,23.07,16.72,22.68,18.27ZM19,20.14,18.22,23c.9.22,3.65,1.11,4.06-.53S19.84,20.36,19,20.14ZM31.63,22.9h0A12,12,0,1,1,22.89,8.36,12,12,0,0,1,31.63,22.9Zm-9-7.63.54-2.17-1.31-.33-.53,2.11-1.05-.25.53-2.12-1.32-.33L19,14.35l-.84-.2h0l-1.81-.45L16,15.09s1,.23.95.24a.71.71,0,0,1,.62.77l-.62,2.46a.48.48,0,0,1,.14.05l-.14,0L16.05,22a.49.49,0,0,1-.6.32l-1-.24-.65,1.5,1.71.43.94.24-.55,2.19,1.32.33.54-2.17,1.05.28-.54,2.15,1.31.33.55-2.19c2.24.43,3.93.26,4.64-1.77a2.3,2.3,0,0,0-1.21-3.19,2.1,2.1,0,0,0,1.68-1.94h0C25.52,16.7,24.31,15.84,22.64,15.27Z"/></g></svg>